<svg id="visual" viewBox="0 0 900 600" width="900" height="600" xmlns="http://www.w3.org/2000/svg" xmlns:xlink="http://www.w3.org/1999/xlink" version="1.1"><g stroke-width="1" stroke-linejoin="bevel"><path d="M403 298L351.5 286L372.5 389Z" fill="#61a8ca" stroke="#001122"></path><path d="M351.5 286L270 398L372.5 389Z" fill="#2672a6" stroke="#001122"></path><path d="M351.5 286L263 272L270 398Z" fill="#2672a6" stroke="#001122"></path><path d="M436 173L295.5 212L351.5 286Z" fill="#6cb1d0" stroke="#001122"></path><path d="M351.5 286L295.5 212L263 272Z" fill="#0a5792" stroke="#001122"></path><path d="M466 528L497 425L372.5 389Z" fill="#579fc4" stroke="#001122"></path><path d="M372.5 389L497 425L403 298Z" fill="#61a8ca" stroke="#001122"></path><path d="M497 425L526.5 346L403 298Z" fill="#0a5792" stroke="#001122"></path><path d="M403 298L436 173L351.5 286Z" fill="#579fc4" stroke="#001122"></path><path d="M526.5 346L436 173L403 298Z" fill="#4d96be" stroke="#001122"></path><path d="M270 398L296.5 525L372.5 389Z" fill="#61a8ca" stroke="#001122"></path><path d="M347.5 109L265 153L295.5 212Z" fill="#61a8ca" stroke="#001122"></path><path d="M295.5 212L217 141L263 272Z" fill="#4d96be" stroke="#001122"></path><path d="M270 398L242 508L296.5 525Z" fill="#3984b2" stroke="#001122"></path><path d="M118.5 501L242 508L270 398Z" fill="#146099" stroke="#001122"></path><path d="M121.5 336L270 398L263 272Z" fill="#3984b2" stroke="#001122"></path><path d="M296.5 525L466 528L372.5 389Z" fill="#6cb1d0" stroke="#001122"></path><path d="M497 425L580.5 409L526.5 346Z" fill="#3984b2" stroke="#001122"></path><path d="M552.5 466L580.5 409L497 425Z" fill="#2f7bac" stroke="#001122"></path><path d="M526.5 346L573.5 197L436 173Z" fill="#61a8ca" stroke="#001122"></path><path d="M466 528L552.5 466L497 425Z" fill="#3984b2" stroke="#001122"></path><path d="M436 173L347.5 109L295.5 212Z" fill="#146099" stroke="#001122"></path><path d="M115.5 203L121.5 336L263 272Z" fill="#0a5792" stroke="#001122"></path><path d="M246 0L217 141L265 153Z" fill="#1d699f" stroke="#001122"></path><path d="M265 153L217 141L295.5 212Z" fill="#61a8ca" stroke="#001122"></path><path d="M654 341L573.5 197L526.5 346Z" fill="#6cb1d0" stroke="#001122"></path><path d="M436 173L471 61L347.5 109Z" fill="#2f7bac" stroke="#001122"></path><path d="M243 600L295.5 600L296.5 525Z" fill="#3984b2" stroke="#001122"></path><path d="M296.5 525L295.5 600L466 528Z" fill="#2f7bac" stroke="#001122"></path><path d="M243 600L296.5 525L242 508Z" fill="#146099" stroke="#001122"></path><path d="M295.5 600L472 600L466 528Z" fill="#438db8" stroke="#001122"></path><path d="M466 528L558.5 600L552.5 466Z" fill="#2672a6" stroke="#001122"></path><path d="M217 141L115.5 203L263 272Z" fill="#3984b2" stroke="#001122"></path><path d="M697 417L654 341L580.5 409Z" fill="#0a5792" stroke="#001122"></path><path d="M580.5 409L654 341L526.5 346Z" fill="#438db8" stroke="#001122"></path><path d="M628 472L580.5 409L552.5 466Z" fill="#4d96be" stroke="#001122"></path><path d="M152.5 600L243 600L242 508Z" fill="#579fc4" stroke="#001122"></path><path d="M627 138L571.5 127L573.5 197Z" fill="#2672a6" stroke="#001122"></path><path d="M573.5 197L571.5 127L436 173Z" fill="#2f7bac" stroke="#001122"></path><path d="M558.5 600L628 472L552.5 466Z" fill="#2f7bac" stroke="#001122"></path><path d="M571.5 127L471 61L436 173Z" fill="#6cb1d0" stroke="#001122"></path><path d="M246 0L159.5 77L217 141Z" fill="#579fc4" stroke="#001122"></path><path d="M65.5 407L118.5 501L121.5 336Z" fill="#6cb1d0" stroke="#001122"></path><path d="M121.5 336L118.5 501L270 398Z" fill="#3984b2" stroke="#001122"></path><path d="M0 368L65.5 407L121.5 336Z" fill="#2672a6" stroke="#001122"></path><path d="M472 600L558.5 600L466 528Z" fill="#3984b2" stroke="#001122"></path><path d="M679 179L627 138L573.5 197Z" fill="#3984b2" stroke="#001122"></path><path d="M517.5 0L446 0L471 61Z" fill="#438db8" stroke="#001122"></path><path d="M246 0L265 153L347.5 109Z" fill="#2f7bac" stroke="#001122"></path><path d="M217 141L159.5 77L115.5 203Z" fill="#4d96be" stroke="#001122"></path><path d="M446 0L325.5 0L347.5 109Z" fill="#4d96be" stroke="#001122"></path><path d="M118.5 501L152.5 600L242 508Z" fill="#438db8" stroke="#001122"></path><path d="M0 600L152.5 600L118.5 501Z" fill="#579fc4" stroke="#001122"></path><path d="M628 472L697 417L580.5 409Z" fill="#2f7bac" stroke="#001122"></path><path d="M654 341L679 179L573.5 197Z" fill="#3984b2" stroke="#001122"></path><path d="M755.5 397L697 417L765.5 491Z" fill="#6cb1d0" stroke="#001122"></path><path d="M517.5 0L471 61L571.5 127Z" fill="#2f7bac" stroke="#001122"></path><path d="M471 61L446 0L347.5 109Z" fill="#61a8ca" stroke="#001122"></path><path d="M768.5 304L679 179L654 341Z" fill="#4d96be" stroke="#001122"></path><path d="M325.5 0L246 0L347.5 109Z" fill="#0a5792" stroke="#001122"></path><path d="M0 267L0 368L121.5 336Z" fill="#6cb1d0" stroke="#001122"></path><path d="M65.5 407L0 496L118.5 501Z" fill="#6cb1d0" stroke="#001122"></path><path d="M0 267L121.5 336L115.5 203Z" fill="#4d96be" stroke="#001122"></path><path d="M712 0L517.5 0L571.5 127Z" fill="#6cb1d0" stroke="#001122"></path><path d="M712 0L571.5 127L627 138Z" fill="#1d699f" stroke="#001122"></path><path d="M0 245L0 267L115.5 203Z" fill="#1d699f" stroke="#001122"></path><path d="M0 97L0 245L115.5 203Z" fill="#3984b2" stroke="#001122"></path><path d="M765.5 491L697 417L628 472Z" fill="#2f7bac" stroke="#001122"></path><path d="M697 417L755.5 397L654 341Z" fill="#61a8ca" stroke="#001122"></path><path d="M0 368L0 496L65.5 407Z" fill="#146099" stroke="#001122"></path><path d="M755.5 397L768.5 304L654 341Z" fill="#2672a6" stroke="#001122"></path><path d="M558.5 600L697 600L628 472Z" fill="#579fc4" stroke="#001122"></path><path d="M697 600L765.5 491L628 472Z" fill="#61a8ca" stroke="#001122"></path><path d="M900 399L900 307L768.5 304Z" fill="#0a5792" stroke="#001122"></path><path d="M900 307L782.5 230L768.5 304Z" fill="#6cb1d0" stroke="#001122"></path><path d="M768.5 304L782.5 230L679 179Z" fill="#3984b2" stroke="#001122"></path><path d="M679 179L747.5 135L627 138Z" fill="#2672a6" stroke="#001122"></path><path d="M782.5 230L747.5 135L679 179Z" fill="#61a8ca" stroke="#001122"></path><path d="M159.5 77L0 97L115.5 203Z" fill="#61a8ca" stroke="#001122"></path><path d="M84.5 0L0 97L159.5 77Z" fill="#6cb1d0" stroke="#001122"></path><path d="M246 0L84.5 0L159.5 77Z" fill="#6cb1d0" stroke="#001122"></path><path d="M0 496L0 600L118.5 501Z" fill="#438db8" stroke="#001122"></path><path d="M813.5 0L712 0L747.5 135Z" fill="#579fc4" stroke="#001122"></path><path d="M747.5 135L712 0L627 138Z" fill="#146099" stroke="#001122"></path><path d="M84.5 0L0 0L0 97Z" fill="#6cb1d0" stroke="#001122"></path><path d="M697 600L802.5 600L765.5 491Z" fill="#0a5792" stroke="#001122"></path><path d="M900 399L768.5 304L755.5 397Z" fill="#2672a6" stroke="#001122"></path><path d="M900 399L755.5 397L900 456Z" fill="#146099" stroke="#001122"></path><path d="M782.5 230L900 95L747.5 135Z" fill="#1d699f" stroke="#001122"></path><path d="M900 456L755.5 397L765.5 491Z" fill="#61a8ca" stroke="#001122"></path><path d="M900 307L900 240L782.5 230Z" fill="#0a5792" stroke="#001122"></path><path d="M802.5 600L900 456L765.5 491Z" fill="#579fc4" stroke="#001122"></path><path d="M900 95L813.5 0L747.5 135Z" fill="#61a8ca" stroke="#001122"></path><path d="M900 240L900 95L782.5 230Z" fill="#61a8ca" stroke="#001122"></path><path d="M802.5 600L900 600L900 456Z" fill="#0a5792" stroke="#001122"></path><path d="M900 95L900 0L813.5 0Z" fill="#1d699f" stroke="#001122"></path></g></svg>